<?xml version="1.0" encoding="utf-8"?>
<!-- Generator: Adobe Illustrator 25.4.1, SVG Export Plug-In . SVG Version: 6.00 Build 0)  -->
<svg version="1.1" id="Layer_1" xmlns="http://www.w3.org/2000/svg" xmlns:xlink="http://www.w3.org/1999/xlink" x="0px" y="0px"
	 viewBox="0 0 307.8 111.1" style="enable-background:new 0 0 307.8 111.1;" xml:space="preserve">
<style type="text/css">
	.st0{fill:#FF7C66;}
	.st1{fill:#033D58;}
</style>
<circle class="st0" cx="294.7" cy="16" r="6.7"/>
<path class="st1" d="M98.7,31.6C113.6,31.3,126,43,126.4,58c0.4,14.9-11.4,27.3-26.3,27.7c-0.5,0-0.9,0-1.4,0
	C83.8,86.1,71.4,74.3,71,59.4S82.4,32,97.3,31.6C97.8,31.6,98.2,31.6,98.7,31.6z M98.7,75.6c9.1,0.2,16.7-7,16.9-16.2
	c0-0.3,0-0.5,0-0.8c0-9.3-7.5-16.9-16.8-16.9s-16.9,7.5-16.9,16.8l0,0c-0.3,9.1,6.9,16.7,16,17C98.1,75.6,98.4,75.6,98.7,75.6z"/>
<path class="st1" d="M160.1,31.6c14.9,0.3,26.8,12.6,26.5,27.5c-0.2,15-12.6,26.9-27.5,26.6c-14.7-0.3-26.5-12.3-26.5-27
	c-0.1-14.8,11.7-26.9,26.5-27C159.5,31.6,159.8,31.6,160.1,31.6z M160.1,75.6c9.1,0.2,16.7-7,16.9-16.2c0-0.3,0-0.5,0-0.8
	c0-9.3-7.5-16.9-16.8-16.9s-16.9,7.5-16.9,16.8l0,0c-0.3,9.1,6.9,16.7,16,17C159.6,75.6,159.9,75.6,160.1,75.6z"/>
<path class="st1" d="M289.3,83.4V32.8c0-0.7,0.5-1.2,1.2-1.2l0,0h8.3c0.6,0,1.2,0.5,1.2,1.2l0,0v50.6c0,0.6-0.5,1.2-1.2,1.2h-8.3
	C289.9,84.6,289.3,84.1,289.3,83.4z"/>
<path class="st1" d="M258.1,31.6c-7.4-0.2-14.4,3.5-18.5,9.7c-3.3-6-9.6-9.7-18.5-9.7s-14.1,5-15.7,7.6V31c0-0.6-0.5-1.2-1.1-1.2
	c-0.2,0-0.5,0.1-0.7,0.2l-8.7,5c-0.2,0.1-0.3,0.3-0.3,0.5v47.8c0,0.7,0.5,1.2,1.2,1.2h8.4c0.7,0,1.2-0.5,1.2-1.2V55.4
	c0-8.6,6.3-13.6,14-13.6s12.2,5,12.2,13.6v28.1c0,0.6,0.5,1.2,1.2,1.2h8.4c0.6,0,1.2-0.5,1.2-1.2V54.7c0.3-8.2,6.5-12.9,14.1-12.9
	c7.6,0,12.2,5,12.2,13.6v28.1c0,0.6,0.5,1.2,1.2,1.2h8.4c0.6,0,1.2-0.5,1.2-1.2V53.1C279.4,40.5,271.9,31.6,258.1,31.6z"/>
<path class="st1" d="M36.5,31.6c-7.1-0.1-13.9,2.5-19.1,7.3V3.1c0-0.7-0.5-1.2-1.2-1.2c-0.2,0-0.4,0.1-0.6,0.2L7,7.1
	C6.8,7.2,6.7,7.4,6.7,7.6v75.8c0,0.6,0.5,1.2,1.2,1.2l0,0h8.4c0.6,0,1.2-0.5,1.2-1.2l0,0v-5c5.2,4.8,12.1,7.4,19.1,7.3
	c14.9,0.4,27.3-11.4,27.7-26.3c0.3-15-11.5-27.4-26.4-27.8C37.4,31.6,37,31.6,36.5,31.6L36.5,31.6z M36.5,75.6
	c-9.1,0.2-16.7-7-16.9-16.2c0-0.3,0-0.5,0-0.8c0-9.3,7.5-16.9,16.9-16.9s16.9,7.5,16.9,16.9c0.3,9.1-6.9,16.7-16,17
	C37.1,75.6,36.8,75.6,36.5,75.6z"/>
</svg>
